<svg version="1.1" id="Layer_1" xmlns="http://www.w3.org/2000/svg" xmlns:xlink="http://www.w3.org/1999/xlink" x="0px" y="0px"
	 width="1200px" height="1200px" viewBox="0 0 1200 1200" enable-background="new 0 0 1200 1200" xml:space="preserve">
<g id="D6ZEpe_1_">
	<g>
		<g>
			<path fill-rule="evenodd" clip-rule="evenodd" fill="#0E1011" d="M1198.136,315.205c-3.77,7.364-8.262,14.448-11.184,22.14
				c-12.538,33.004-34.56,39.124-61.351,16.681c-5.656-4.738-11.353-9.429-17.083-14.076c-15.135-12.272-29.772-13.385-47.599-3.145
				c-22.617,12.992-39.258,27.235-33.308,56.597c0.736,3.63-0.533,9.004-2.929,11.739c-18.726,21.393-37.203,43.251-61.72,58.308
				c-17.981,11.042-23.943,28.528-27.111,47.779c-7.462,45.368-1.958,90.732,0.448,136.071
				c2.213,41.693-1.839,82.152-17.676,121.332c-13.204,32.666-34.282,59.338-58.884,83.282
				c-15.25,14.843-22.316,31.117-21.279,52.602c1.195,24.75-4.729,48.361-24.825,64.595c-17.153,13.855-36.842,26.194-59.15,26.471
				c-32.516,0.403-60.702,8.465-89.871,24.371c-44.123,24.061-90.29,17.248-131.93-11.035
				c-16.596-11.271-34.461-12.676-52.791-11.641c-28.891,1.634-53.723-9.573-76.555-24.659
				c-23.048-15.228-31.091-39.97-29.693-66.708c1.205-23.04-7.275-39.726-23.716-54.977
				c-52.345-48.561-79.713-108.769-78.473-181.076c0.819-47.774,7.481-95.496,3.578-143.251
				c-1.313-16.072-4.511-32.107-14.47-47.353c-11.229-17.191-30.952-20.976-42.987-35.859
				c-10.686-13.212-23.984-24.257-35.93-36.458c-3.449-3.523-5.072-8.427-4.137-13.223c5.151-26.416-6.971-41.643-29.381-53.923
				c-26.526-14.535-37.964-14.438-64.522,8.718c-25.764,22.463-35.594,24.558-55.001,12.26
				c-12.604-7.986-14.21-22.863-21.537-34.143c-2.324-3.578-3.975-7.601-5.934-11.42c0-1.528,0-3.056,0-4.584
				c1.003-0.936,2.166-1.536,3.541-1.64c19.769-1.496,38.486-7.92,57.292-13.401c9.99-2.912,19.266-8.655,27.976-14.898
				c11.864-8.503,23.412-17.661,36.419-24.267c23.977-12.177,46.973-26.337,72.145-36.139c7.346-2.861,14.372-6.544,20.542-11.94
				c5.87-5.133,13.567-7.481,20.431-11.104c5.74-3.029,11.164-6.375,15.856-10.95c5.798-5.653,12.231-9.716,20.89-7.179
				c1.426,0.417,3.027,0.31,4.525,0.16c15.22-1.523,29.673,2.195,44.048,6.482c1.273,0.379,2.653,0.641,3.722,1.376
				c14.201,9.777,31.614,11.073,46.91,18.127c10.303,4.751,21.235,8.345,30.943,14.238c9.96,6.046,20.358,6.435,31.211,5.128
				c12.628-1.521,24.743-5.491,37.098-8.312c3.538-0.808,6.995-1.501,10.615-1.495c12.303,0.022,24.609,0.189,36.906-0.052
				c8.888-0.174,17.255,1.652,25.367,5.129c19.009,8.147,38.686,9.578,58.881,5.98c3.521-0.627,7.116-1.305,10.491,0.826
				c0.787,0.497,1.809,0.564,2.753,0.606c17.495,0.79,34.729,0.285,51.069-7.522c7.178-3.429,14.955-5.25,23.095-5.001
				c6.617,0.203,13.28,0.473,19.865-0.044c16.152-1.267,31.564,2.321,46.933,6.481c4.94,1.337,9.887,2.684,14.975,3.252
				c10.592,1.184,20.755,1.537,30.604-4.718c14.454-9.179,30.897-14.291,46.593-20.906c1.926-0.812,3.907-1.503,5.952-1.885
				c7.114-1.329,13.362-4.297,19.796-7.824c10.083-5.529,21.454-8.613,33.007-9.693c8.828-0.826,17.765,0.257,26.636-0.949
				c4.728-0.643,8.764,2.008,11.54,5.234c7.214,8.385,16.858,12.913,26.306,17.56c8.26,4.063,14.675,10.839,22.99,14.649
				c16.873,7.732,33.43,16.073,49.812,24.843c23.271,12.458,45.605,26.183,66.728,42.162c11.795,8.922,25.746,14.297,40.293,17.732
				c9.381,2.216,18.791,4.402,27.996,7.341c2.568,0.82,5.23,0.741,7.877,0.8c2.276,0.05,4.58,0.021,6.372,1.812
				C1198.136,312.148,1198.136,313.676,1198.136,315.205z"/>
			<path fill-rule="evenodd" fill="#FDFDFD" clip-rule="evenodd" d="M391.266,890.105c5.033-28.278,2.35-58.976,24.422-82.4
				c0.677-0.719,0.252-2.495,0.342-3.778c-1.269,0.4-2.854,0.445-3.753,1.261c-4.636,4.208-8.038,9.906-15.1,10.908
				c-14.725,2.087-12.391-12.878-18.262-19.366c-5.136-5.678-6.538-11.083-16.824-8.574c-17.823,4.349-33.431-7.288-45.704-28.757
				c-11.833-20.698-27.061-39.805-36.148-61.586c-6.502-15.586-3.468-34.458-1.515-51.902c0.144-1.287,0.814-2.529,0.878-3.811
				c1.458-29.146,2.203-58.347,4.447-87.429c2.889-37.434-1.852-75.673,11.196-112.113c1.535-4.286,2.147-10.449-3.745-11.286
				c-5.678-0.806-4.814,5.513-6.334,9.425c-2.427,6.243-3.086,12.594-4.223,19.031c-0.841,4.76-3.732,10.945-10.687,5.969
				c-21.856-15.638-48.139-24.322-67.092-44.628c-15.805-16.933-17.621-36.724-13.75-57.995c1.335-7.339,0.696-12.282-8.193-12.023
				c-7.553,0.219-13.695-4.41-15.679-10.177c-3.989-11.599-5.763-25.135,3-34.911c25.728-28.702,58.077-42.802,96.709-37.479
				c12.978,1.788,22.83,9.295,20.966,25.67c-1.073,9.426-0.385,19.052-0.562,28.587c-0.084,4.497-3.067,7.614-6.81,7.833
				c-3.299,0.193-5.477-3.067-6.436-6.827c-1.105-4.336-2.566-8.725-4.758-12.578c-1.274-2.238-3.076-6.555-6.437-4.848
				c-3.155,1.602-4.215,5.77-3.092,9.477c5.484,18.101,12.082,35.972,9.668,55.493c-0.128,1.04,1.109,3.227,1.727,3.233
				c5.213,0.049,10.583-0.666,13.417-5.658c4.179-7.357,7.521-15.193,11.554-22.64c4.581-8.456,10.248-17.867,21.294-12.246
				c12.309,6.263,3.027,15.462-0.14,22.776c-1.628,3.761-2.181,7.088-1.749,10.815c0.042,0.362,2.301,0.667,3.525,0.646
				c4.492-0.075,5.643-3.628,7.142-6.992c10.978-24.633,22.592-48.997,32.854-73.929c6.238-15.158-8.67-18.702-16.778-24.223
				c-15.108-10.288-31.168-12.894-50.143-7.369c-14.352,4.179-30.798,0.937-46.309,1.177c-29.631,0.459-52.741,15.839-75.968,32.311
				c-15.814,11.215-28.936,26.692-52.018,27.454c-10.833,0.357-21.465,13.537-31.782,21.446
				c-11.204,8.59-21.714,17.515-37.545,15.306c-10.077-1.407-28.239-20.456-27.275-30.792c0.09-0.963,1.508-2.441,2.473-2.588
				c43.775-6.645,77.902-33.354,115.082-54.462c44.476-25.25,90.495-48.112,137.29-68.66c22.721-9.978,47.379,0.246,70.565,6.992
				c17.123,4.982,32.598,13.419,46.716,24.078c17.481,13.198,36.262,10.73,55.899,7.596c22.965-3.666,45.392-10.777,69.127-9.949
				c19.341,0.675,35.72,12.248,53.892,14.517c36.207,4.521,72.538,5.973,107.582-9.995c22.186-10.108,45.737-4.43,68.03,1.788
				c34.497,9.623,63.723,4.238,95.152-15.837c43.561-27.821,90.977-32.518,136.636,1.553c28.802,21.491,64.194,31.445,94.245,50.854
				c24.113,15.575,46.952,33.221,74.349,42.84c9.033,3.171,18.299,5.851,27.649,7.849c5.109,1.091,6.908,2.542,4.816,7.678
				c-4.07,9.996-7.882,22.091-18.102,25.253c-12.613,3.903-25.031,0.766-36.932-8.679c-15.182-12.049-28.361-25.988-50.793-30.024
				c-17.74-3.192-32.943-21.362-49.015-33.237c-21.035-15.546-44.028-26.681-70.42-22.897c-24.081,3.453-47.566-11.744-71.301-0.86
				c-6.697,3.071-13.364,6.625-19.209,11.077c-7.936,6.046-14.094,12.507-8.209,24.672c11.419,23.606,21.348,47.947,31.896,71.981
				c1.649,3.758,5.351,5.567,8.142,3.688c1.469-0.988,0.977-6.304,0.043-9.237c-1.28-4.028-4.271-7.484-5.701-11.487
				c-1.715-4.8-1.023-9.6,3.611-12.683c5.112-3.401,10.039-2.396,14.515,1.514c9.138,7.985,10.123,20.538,16.494,30.179
				c3.851,5.827,8.682,9.647,14.7,8.127c4.426-1.117,2.033-7.349,1.658-10.984c-1.708-16.542,5.728-31.119,9.2-46.517
				c1.005-4.456,0.552-8.949-2.893-10.397c-3.294-1.385-5.287,3.336-6.758,6.186c-1.618,3.134-2.663,6.62-3.584,10.053
				c-1.058,3.935-2.175,8.381-7.038,7.671c-5.194-0.758-6.188-5.517-6.199-10.189c-0.019-8.212,0.913-16.544-0.146-24.612
				c-2.356-17.952,8.13-24.88,22.703-27.856c29.377-6,80.591,17.463,93.165,42.145c9.383,18.414,1.249,36.841-18.089,41.408
				c-4.639,1.096-6.042,4.879-5.246,9.354c6.982,39.211-3.854,61.477-38.453,80.789c-12.771,7.128-25.017,15.275-37.133,23.509
				c-6.527,4.436-10.105,2.129-11.894-4.167c-2.089-7.349-3.472-14.935-4.647-22.5c-0.588-3.785-1.702-7.448-5.615-6.979
				c-3.658,0.439-5.01,4.05-4.252,8.04c3.841,20.221,11.512,40.668,10.448,60.636c-1.465,27.523,1.111,54.654,1.68,81.917
				c0.618,29.752,2.907,59.552,6.177,89.138c2.736,24.759-7.761,44.088-20.529,63.209c-9.575,14.339-16.535,30.265-27.607,43.788
				c-8.51,10.394-18.926,16.239-31.05,12.26c-15.558-5.106-17.745,8-21.695,15.3c-8.022,14.825-14.809,16.837-26.89,4.393
				c-1.38-1.42-3.185-2.418-4.791-3.612c1,1.659,1.651,3.751,3.057,4.911c12.662,10.455,10.745,26.638,15.342,40.161
				c6.563,19.312,7.094,40.144,3.877,59.576c-7.02,42.39-25.778,80-77.671,78.307c-20.126-0.656-40.707-2.281-59.099-11.347
				c-7.528-3.71-14.057-11.253-18.821-18.532c-9.167-14-24.403-25.04-21.099-45.677c1.559-9.731,2.841-16.755,13.427-20.536
				c16.627-5.941,22.343-21.988,29.55-36.381c2.09-4.173,4.875-8.012,7.536-11.866c7.015-10.157,9.977-21.027,7.771-33.536
				c-2.365-13.408,1.446-25.436,9.96-36.053c2.914-3.632,2.644-8.498,0.556-11.942c-12.637-20.857-26.849-40.593-45.713-56.213
				c-4.425-3.665-10.126-6.289-16.747-6.216c-26.446,0.296-52.914,0.688-79.339-0.109c-13.911-0.42-23.842,3.865-32.887,14.896
				c-11.183,13.637-23.601,26.069-33.283,41.146c-5.805,9.04-5.305,16.628,0.294,23.622c6.576,8.215,9.429,17.078,7.401,26.805
				c-3.524,16.9,2.038,30.597,11.936,43.583c10.834,14.216,14.268,33.846,33.3,42.137c18.45,8.037,21.323,31.419,7.336,46.541
				c-6.192,6.693-11.466,14.279-16.903,21.65c-14.534,19.701-36.066,22.833-57.88,24.377c-14.923,1.058-29.365,3.943-45.039-1.325
				c-24.448-8.216-37.167-25.44-46.054-47.679C394.23,921.72,389.367,906.724,391.266,890.105z"/>
			<path fill-rule="evenodd" clip-rule="evenodd" fill="#FDFDFD" d="M564.637,800.29c0.674,7.51-5.415,16.479-8.417,13.926
				c-7.858-6.684-22.796-2.207-25.055-14.706c-1.647-9.114,6.837-17.607,13.83-18.238
				C556.009,780.278,565.794,786.25,564.637,800.29z"/>
			<path fill-rule="evenodd" clip-rule="evenodd" fill="#FDFDFD" d="M654.047,800.473c-0.948-13.407,7.562-20.176,18.63-19.134
				c7.414,0.697,15.23,9.268,13.671,18.227c-2.135,12.25-16.859,8.07-24.525,14.652
				C659.278,816.402,653.327,807.444,654.047,800.473z"/>
			<path fill-rule="evenodd" clip-rule="evenodd" fill="#0E1011" d="M799.214,502.184c10.802-1.686,21.838,2.048,31.512,10.46
				c2.204,1.917,4.929,2.953,7.885,1.402c3.474-1.822,3.274-5.124,3.461-8.418c0.258-4.593-0.314-12.412,1.571-13.116
				c4.97-1.856,8.812,3.667,12.895,6.552c24.596,17.377,48.218,35.923,53.317,68.384c4.096,26.067,13.726,51.1,14.352,77.74
				c0.448,19.015-21.937,41.435-40.481,41.969c-18.174,0.523-36.239,2.72-54.299,4.598c-11.27,1.173-14.912-13.747-15.698-24.596
				c-1.368-18.888,6.471-37.218,4.006-56.369c-0.818-6.362-0.036-8.662-9.269-7.805c-10.912,1.014-22.501-5.038-33.755-8.184
				c-9.383-2.622-18.695-5.5-28.056-8.206c-4.33-1.251-6.052-4.816-6.265-8.6c-0.233-4.127,3.554-2.21,5.616-2.439
				c2.854-0.317,3.537-1.989,3.198-4.318c-0.737-5.064-1.969-10.069-2.471-15.152C743.452,522.925,762.96,502.184,799.214,502.184z"
				/>
			<path fill-rule="evenodd" clip-rule="evenodd" fill="#0E1011" d="M426.446,588.058c-22.568-0.708-38.444-8.31-47.725-27.062
				c-4.051-8.186-10.206-13.418-19.186-15.374c-3.617-0.788-6.433-2.559-4.193-7.257c13.907-29.177,78.822-39.026,99.495-14.787
				c15.245,17.875,13.844,40.344,15.341,61.886c0.036,0.51-1.651,1.773-2.2,1.601C453.16,582.398,438.519,585.714,426.446,588.058z"
				/>
			<path fill-rule="evenodd" clip-rule="evenodd" fill="#0E1011" d="M712.789,918.509c1.443,1.881,2.906,2.953,2.86,3.957
				c-0.049,1.07-1.521,2.075-2.373,3.108c-1.009-0.891-2.65-1.663-2.844-2.707C710.251,921.873,711.583,920.596,712.789,918.509z"/>
			<path fill-rule="evenodd" clip-rule="evenodd" fill="#0E1011" d="M717.347,952.768c1.213,2.109,2.537,3.383,2.363,4.394
				c-0.179,1.037-1.823,1.816-2.826,2.709c-0.857-1.03-2.341-2.03-2.39-3.097C714.448,955.759,715.903,954.677,717.347,952.768z"/>
			<path fill-rule="evenodd" clip-rule="evenodd" fill="#0E1011" d="M509.548,936.63c-1.914,1.211-3.162,2.619-4.119,2.439
				c-1.022-0.191-2.513-1.941-2.434-2.897c0.084-1.018,1.741-2.605,2.759-2.643C506.743,933.494,507.792,935.105,509.548,936.63z"/>
			<path fill-rule="evenodd" clip-rule="evenodd" fill="#0E1011" d="M790.176,929.055c-1.731,1.498-2.739,3.048-3.736,3.04
				c-0.994-0.008-2.693-1.523-2.763-2.476c-0.072-0.983,1.321-2.756,2.306-2.944C786.951,926.488,788.211,927.859,790.176,929.055z"
				/>
			<path fill-rule="evenodd" clip-rule="evenodd" fill="#0E1011" d="M754.66,929.943c-1.989,1.394-3.177,2.857-4.104,2.705
				c-1.047-0.171-2.555-1.781-2.572-2.789c-0.016-0.913,1.627-2.471,2.681-2.605C751.604,927.135,752.74,928.571,754.66,929.943z"/>
			<path fill-rule="evenodd" clip-rule="evenodd" fill="#0E1011" d="M479.883,909.151c-1.871,1.44-2.984,2.952-3.95,2.861
				c-1.015-0.095-2.6-1.703-2.625-2.686c-0.027-0.97,1.49-2.634,2.509-2.788C476.769,906.396,477.956,907.833,479.883,909.151z"/>
			<path fill-rule="evenodd" clip-rule="evenodd" fill="#0E1011" d="M686.061,905.189c-1.496-1.968-2.977-3.062-2.929-4.083
				c0.051-1.103,1.53-2.139,2.387-3.203c0.98,0.923,2.565,1.731,2.768,2.804C688.476,901.723,687.216,903.016,686.061,905.189z"/>
			<path fill-rule="evenodd" clip-rule="evenodd" fill="#0E1011" d="M743.615,884.292c1.566,1.924,3.089,2.974,3.062,3.98
				c-0.031,1.101-1.495,2.16-2.335,3.238c-1.021-0.886-2.65-1.632-2.888-2.696C741.232,887.821,742.487,886.492,743.615,884.292z"/>
			<path fill-rule="evenodd" clip-rule="evenodd" fill="#0E1011" d="M779.165,881.998c1.353,2.151,2.716,3.362,2.581,4.367
				c-0.145,1.07-1.708,1.945-2.652,2.905c-0.902-0.985-2.413-1.903-2.532-2.979C776.448,885.284,777.806,884.108,779.165,881.998z"
				/>
			<path fill-rule="evenodd" clip-rule="evenodd" fill="#0E1011" d="M511.149,902.122c-1.582-1.956-3.118-3.023-3.084-4.039
				c0.037-1.089,1.55-2.126,2.419-3.186c0.991,0.897,2.581,1.668,2.802,2.729C513.494,898.628,512.264,899.936,511.149,902.122z"/>
			<path fill-rule="evenodd" clip-rule="evenodd" fill="#0E1011" d="M426.189,947.204c-2.012,1.282-3.265,2.698-4.186,2.505
				c-1.047-0.221-2.502-1.897-2.474-2.903c0.025-0.935,1.723-2.461,2.772-2.541C423.257,944.193,424.332,945.714,426.189,947.204z"
				/>
			<path fill-rule="evenodd" clip-rule="evenodd" fill="#0E1011" d="M403.688,905.682c-1.927,1.456-3.052,2.956-4.001,2.849
				c-1.056-0.119-2.636-1.646-2.71-2.657c-0.066-0.888,1.537-2.519,2.583-2.689C400.509,903.029,401.702,904.402,403.688,905.682z"
				/>
			<path fill-rule="evenodd" clip-rule="evenodd" fill="#0E1011" d="M432.246,919.792c-1.489-2.034-2.91-3.123-2.849-4.119
				c0.069-1.113,1.48-2.145,2.307-3.211c1.013,0.91,2.632,1.688,2.859,2.766C434.772,916.213,433.477,917.523,432.246,919.792z"/>
			<path fill-rule="evenodd" clip-rule="evenodd" fill="#0E1011" d="M445.959,879.657c-1.437-2.02-2.882-3.163-2.781-4.144
				c0.113-1.105,1.622-2.063,2.524-3.087c0.958,0.956,2.517,1.808,2.7,2.896C448.568,876.304,447.228,877.544,445.959,879.657z"/>
			<path fill-rule="evenodd" clip-rule="evenodd" fill="#0E1011" d="M680.594,941.965c-1.26-2.045-2.599-3.253-2.473-4.279
				c0.131-1.063,1.678-1.951,2.606-2.916c0.914,0.993,2.47,1.929,2.561,2.993C683.376,938.795,681.963,939.959,680.594,941.965z"/>
			<path fill-rule="evenodd" clip-rule="evenodd" fill="#0E1011" d="M468.014,951.313c-1.863,1.419-3.01,2.95-3.943,2.828
				c-1.039-0.137-2.592-1.767-2.609-2.77c-0.017-0.972,1.542-2.621,2.577-2.77C464.978,948.468,466.144,949.957,468.014,951.313z"/>
			<path fill-rule="evenodd" clip-rule="evenodd" fill="#0E1011" d="M710.935,870.184c-1.954,1.246-3.225,2.679-4.152,2.48
				c-1.028-0.221-2.439-1.962-2.394-2.982c0.042-0.952,1.752-2.509,2.771-2.544C708.141,867.103,709.176,868.677,710.935,870.184z"
				/>
			<path fill-rule="evenodd" clip-rule="evenodd" fill="#0E1011" d="M483.04,870.348c-1.937,1.412-3.087,2.896-4.047,2.78
				c-1.065-0.129-2.687-1.699-2.714-2.679c-0.026-0.947,1.579-2.576,2.635-2.729C479.88,867.579,481.07,869.013,483.04,870.348z"/>
			<path fill-rule="evenodd" clip-rule="evenodd" fill="#0E1011" d="M420.154,871.136c-1.832,1.552-2.855,3.09-3.856,3.076
				c-0.995-0.014-2.692-1.543-2.751-2.491c-0.062-0.987,1.335-2.719,2.342-2.933C416.839,868.586,418.113,869.935,420.154,871.136z"
				/>
			<path fill-rule="evenodd" clip-rule="evenodd" fill="#0E1011" d="M773.54,951.484c-1.872,1.546-2.917,3.075-3.899,3.036
				c-1.029-0.041-2.723-1.537-2.791-2.495c-0.069-0.97,1.362-2.69,2.382-2.907C770.181,948.915,771.454,950.261,773.54,951.484z"/>
			<path fill-rule="evenodd" clip-rule="evenodd" fill="#4D83BD" d="M786.68,582.441c-1.426-0.253-5.293-0.45-8.814-1.666
				c-7.548-2.607-14.848-5.832-18.33-13.989c5.894,1.602,11.825,3.071,17.673,4.831c23.728,7.142,40.165-6.361,38.464-31.579
				c-0.109-1.628,0.688-3.318,1.066-4.979c0.961,1.195,2.168,2.263,2.848,3.603C829.462,558.109,812.35,582.604,786.68,582.441z"/>
			<path fill-rule="evenodd" clip-rule="evenodd" fill="#FDFDFD" d="M800.009,536.165c-2.599,2.285-5.312,5.764-6.261,5.329
				c-6.172-2.836-11.959-6.522-17.872-9.93c3.678-1.674,7.893-5.37,10.908-4.554C791.398,528.258,795.185,532.62,800.009,536.165z"
				/>
			<path fill-rule="evenodd" clip-rule="evenodd" fill="#4D83BD" d="M426.35,580.571c-18.22-3.123-37.082-10.931-47.955-31.568
				c-1.288-2.445-0.88-5.799-1.258-8.732c2.603,1.657,6.624,2.719,7.586,5.062c8.755,21.307,26.792,26.057,46.801,27.833
				c3.228,0.287,6.371,1.545,9.553,2.355C437.67,578.173,434.441,581.22,426.35,580.571z"/>
			<path fill-rule="evenodd" clip-rule="evenodd" fill="#FDFDFD" d="M449.455,531.956c-5.171,4.161-7.61,7.659-9.858,7.537
				c-2.718-0.146-5.275-3.357-7.901-5.242c2.795-2.662,5.217-6.439,8.525-7.564C442.17,526.025,445.523,529.569,449.455,531.956z"/>
		</g>
	</g>
</g>
</svg>
