<svg version="1.1" id="Layer_1" xmlns="http://www.w3.org/2000/svg" xmlns:xlink="http://www.w3.org/1999/xlink" x="0px" y="0px"
	 width="1200px" height="1200px" viewBox="0 0 1200 1200" enable-background="new 0 0 1200 1200" xml:space="preserve">
<g id="e5Di7a_1_">
	<g>
		<g>
			<path fill="#FFFFFF" d="M611,1018c-200.5,0-401,0.01-601.5-0.186c-1.502-0.002-4.313-2.813-4.314-4.314
				C4.991,784.667,5,555.833,5,327c2.728-1.217,3.144,1.087,3.633,2.65c2.032,6.5,5.211,12.656,5.915,19.558
				c0.174,1.704,0.704,3.353,2.087,4.405c4.025,3.061,6.106,7.15,7.662,11.92c1.922,5.896,7.094,8.226,12.849,8.766
				c6.307,0.592,12.517,1.752,18.783,2.556c7.561,0.969,13.457-2.439,18.868-7.283c12.152-10.877,24.753-21.161,39.156-29.023
				c6.695-3.655,9.478-3.284,14.818,2.437c5.201,5.572,11.39,9.162,19.152,9.563c9.146,0.473,16.501,4.72,23.004,10.797
				c1.704,1.593,3.319,3.361,5.644,4.013c3.953,1.108,4.951,3.955,4.94,7.637c-0.022,7.659,0.395,15.345-0.094,22.973
				c-0.766,11.952,4.471,21.331,11.997,29.685c10.297,11.429,21.953,21.351,35.079,29.445c5.393,3.325,11.391,5.48,16.996,8.415
				c4.135,2.166,8.22,4.401,12.175,6.87c1.964,1.226,4.072,2.371,4.728,4.874c-0.69,2.769,0.023,5.132,1.814,7.383
				c3.306,4.154,5.722,8.951,9.22,13.013c6.398,13.32,8.482,27.494,9.277,42.087c0.848,15.548-2.589,30.817-2.253,46.302
				c0.069,3.179-1.382,6.155-1.773,9.306c-1.78,14.329-4.05,28.629-4.711,43.046c-0.379,8.264,0.123,16.664,0.89,24.903
				c1.246,13.376,2.063,26.848,4.723,40.053c3.578,17.76,6.953,35.457,14.444,52.313c5.741,12.919,10.191,26.397,18.191,38.211
				c5.424,8.009,11.339,15.593,18.959,21.756c6.014,4.864,10.553,11.09,14.535,17.675c3.375,5.581,7.655,9.973,13.906,12.334
				c5.645,2.133,9.602,6.488,13.392,10.953c2.047,2.412,2.774,5.378,2.529,8.424c-1.426,17.731,2.9,34.645,6.59,51.758
				c3.27,15.167,10.332,27.571,22.172,37.415c1.699,1.413,3.545,2.481,5.674,3.034c2.294,0.595,4.425,1.468,6.065,3.224
				c2.017,4.012,4.713,6.494,9.633,4.443c0.848-0.354,1.947,0.15,2.911,0.537c15.677,9.45,32.938,12.496,50.875,12.918
				c7.112,0.167,14.241-0.487,21.337,0.444c4.922,1.835,10.01,1.975,15.174,1.574c2.631-0.203,5.354-0.529,7.447,1.699
				c5.079,7.483,12.952,11.257,20.686,15.021c8.077,3.931,16.738,6.438,25.418,8.683c4.351,1.126,8.613,2.461,12.877,3.843
				c6.041,1.958,12.191,3.226,18.614,2.879c2.824-0.152,5.681-0.022,8.099,1.828c0.838,0.628,1.527,1.395,2.085,2.278
				C611.437,1017.103,611.372,1017.572,611,1018z"/>
			<path fill-rule="evenodd" clip-rule="evenodd" fill="#FFFFFF" d="M1198,307c0,235.5,0.008,471-0.186,706.5
				c-0.002,1.501-2.812,4.312-4.314,4.314C1007,1018.011,820.5,1018,634,1018c-0.371-0.432-0.43-0.902-0.176-1.416
				c0.562-0.896,1.26-1.664,2.105-2.302c4.086-2.734,8.767-1.775,13.149-1.731c11.473,0.115,22.097-2.441,31.834-8.555
				c0.705-0.443,1.449-0.87,2.247-1.084c9.372-2.513,16.16-8.252,21.028-16.528c1.493-2.538,3.728-4.394,6.904-4.231
				c10.601,0.541,20.841-2.102,31.229-3.433c1.994-0.255,4.067-0.868,5.941-0.2c10.418,3.717,20.508,0.363,30.459-1.762
				c12.081-2.58,23.892-6.213,32.106-16.732c2.435-3.117,6.548-4.508,9.681-7.016c6.193-4.959,11.255-10.827,15.215-17.692
				c1.831-3.176,3.518-6.438,5.496-9.525c6.268-9.78,10.93-20.173,12.712-31.764c0.722-4.692,1.854-9.162,7.544-10.583
				c2.142-0.535,3.23-2.795,4.28-4.699c2.092-3.796,3.912-7.725,5.748-11.651c12.16-26.009,25.854-51.085,43.136-74.171
				c9.479-12.662,18.556-25.639,28.019-38.326c3.593-4.815,7.378-9.434,11.383-13.914c4.736-5.297,7.14-11.973,9.649-18.475
				c2.819-7.304,4.861-14.887,7.324-22.321c1.254-3.786,2.162-7.69,5.311-10.569c1.437-1.315,1.693-3.25,1.285-5.129
				c-1.933-8.908-1.005-17.936-1.153-26.912c-0.121-7.331-0.329-14.68,0.033-21.994c1.009-20.331-1.951-40.234-6.493-59.904
				c-3.976-17.217-5.725-34.922-10.842-51.837c-3.788-12.522-3.36-25.352-4.733-38.054c-0.107-1-0.048-2.001,0.134-2.988
				c1.8-9.753,1.271-19.231-3.153-28.304c-0.709-1.454-1.661-3.253-0.418-4.702c1.331-1.551,3.165-0.51,4.624,0.104
				c13.873,5.833,28.15,6.13,42.682,3.294c2.635-0.514,5.339-0.713,7.968-0.412c11.407,1.308,19.896-4.421,27.65-11.549
				c4.933-4.535,9.197-9.863,10.877-16.495c2.562-10.11,7.859-19.044,11.542-28.647c3.634-9.476,5.196-19.533,11.447-28.252
				c3.89-5.426,2.355-12.531-2.826-17.89c-1.453-1.503-3.694-3.101-2.781-5.445c1.068-2.744,4.013-2.544,6.492-2.717
				c1.495-0.104,3.018-0.207,4.495-0.025c8.924,1.093,16.651-1.952,24.097-6.483c4.269-2.598,7.969-5.434,9.257-10.56
				c0.634-2.521,2.42-3.35,4.921-3.167c3.83,0.28,7.627,0.85,11.395,1.505c6.587,1.146,13.178,1.927,19.879,1.714
				c5.658-0.18,10.718,2.226,15.917,3.953c6.289,2.089,6.36,2.149,6.839-4.284c0.246-3.307,1.456-5.618,4.658-6.977
				c8.566-3.633,17.866-5.399,25.963-10.223C1196.661,306.59,1197.367,306.699,1198,307z"/>
			<path fill-rule="evenodd" clip-rule="evenodd" fill="#010101" d="M1198,307c-9.084,3.918-18.199,7.768-27.223,11.822
				c-1.468,0.66-3.73,2.392-3.596,3.341c1.535,10.856-2.635,9.488-11.145,7.402c-15.049-3.688-30.731-4.795-46.155-6.934
				c-0.516-0.071-1.465,0.243-1.606,0.61c-7.075,18.382-22.63,20.005-39.106,19.954c-2.088-0.006-4.178,0.614-6.267,0.945
				c1.199,1.559,3.091,2.965,3.475,4.705c1.421,6.45,4.924,13.919,3.001,19.367c-7.516,21.292-14.614,43.304-26.301,62.326
				c-6.491,10.566-21.015,20.368-33.21,22.283c-18.276,2.87-37.689-1.511-56.625-2.717c-0.359-0.023-1.187,1.127-1.131,1.66
				c1.601,15.208,2.538,30.534,5.112,45.58c5.459,31.898,13.127,63.473,17.308,95.517c3.232,24.775,3.051,50.055,3.468,75.125
				c0.611,36.768-18.061,65.377-38.224,94.471c-25.763,37.175-46.064,78.175-72.337,114.941
				c-15.932,22.297-18.578,50.93-38.92,70.473c-19.198,18.444-40.187,32.424-67.521,33.912c-16.725,0.91-33.493,0.991-50.237,1.563
				c-1.145,0.039-2.647,0.779-3.323,1.686c-17.178,23.055-40.975,30.429-68.496,29.222c-0.977-0.043-2.002,1.03-3.005,1.583
				c-8.952,1.802-17.896,2.059-26.827-0.135c-17.098-3.878-34.741-6.24-51.117-12.125c-12.518-4.498-23.434-13.453-35.062-20.425
				c-1.512-3.24-3.955-4.01-7.398-3.316c-4.882,0.981-9.85,1.331-14.806,0.287c-25.479-0.052-51.249,1.407-73.727-14.211
				c-4.041-0.257-7.804-1.292-11.007-3.906c-41.299-19.804-38.612-58.941-42.709-95.491c-0.688-6.135-6.112-12.314-10.638-17.303
				c-6.105-6.729-14.246-11.654-20.12-18.542c-13.525-15.862-28.661-31.071-38.705-49.028
				c-18.719-33.462-28.929-70.593-28.986-108.933c-0.062-42.26,4.686-84.512,5.257-126.795c0.218-16.13-5.335-32.339-8.259-48.512
				c-1.516-5.594-5.504-10.176-6.516-15.99c-0.32-1.843-2.581-1.971-3.398-3.437c-9.356-5.481-19.571-9.905-27.888-16.665
				c-17.068-13.872-34.481-27.798-48.904-44.205c-5.58-6.347-5.794-19.846-4.319-29.451c3.021-19.668-12.086-24.302-23.503-31.492
				c-10.127-6.377-21.398-13.577-32.694-14.607c-8.678-0.792-18.723,6.579-27.182,11.879c-11.838,7.417-22.088,17.533-34.283,24.171
				c-11.504,6.263-35.989-4.633-41.562-16.346C16.132,349.801,10.533,338.416,5,327c0-1,0-2,0-3
				c3.994-6.802,5.862-7.472,12.641-4.18c1.05,0.51,1.747,0.379,2.749,0.134c15.023-3.682,30.045-7.376,45.115-10.865
				c2.963-0.686,5.631-1.942,8.148-3.659c7.023-4.79,14.329-9.098,22.221-12.326c3.45-1.412,6.337-3.663,9.178-5.98
				c14.444-11.781,31.054-19.954,47.481-28.401c16.615-8.544,34.106-15.036,51.474-21.851c7.674-3.011,15.004-7.075,21.407-12.647
				c4.777-4.157,10.576-6.985,16.365-9.513c8.634-3.77,16.66-8.325,23.322-15.092c2.387-2.424,5.35-3.582,8.663-2.465
				c4.06,1.369,8.196,1.289,12.357,1.269c13.327-0.066,26.574,0.139,39.686,3.378c5.586,1.38,11.535,1.462,17.206,2.876
				c13.935,3.474,27.366,8.629,40.166,14.851c8.25,4.01,15.814,9.781,23.716,14.719c5.277,3.298,10.647,6.077,16.928,6.994
				c2.736,0.399,5.218,0.339,7.823-0.55c7.921-2.703,15.985-4.675,24.462-4.297c2.001,0.089,4.001-0.14,5.941-0.677
				c12.09-3.349,24.557-4.098,36.948-5.37c5.617-0.577,11.087-1.982,16.83-2.014c15.583-0.086,30.326,2.817,44.357,9.864
				c6.69,3.36,14.07,5.115,21.695,5.232c1.667,0.026,3.396-0.146,4.972,0.366c11.97,3.89,22.861-0.631,34.071-3.863
				c14.513-4.185,27.366-12.118,41.378-17.387c16.018-6.022,32.357-10.08,49.644-9.135c2.16,0.118,4.351,0.201,6.495-0.013
				c16.586-1.653,31.517,3.785,46.129,10.635c1.358,0.637,2.76,1.199,4.067,1.919c7.086,3.906,13.66,4.939,20.432-1.256
				c3.51-3.211,8.652-4.459,13.298-5.498c15.831-3.542,29.666-11.699,44.266-18.141c14.63-6.455,30.023-10.87,45.48-15.03
				c13.601-0.841,27.195-0.393,40.783-0.522c4.642-0.044,9.277,0,13.875,0.505c1.494-0.068,3,0.196,4.402,0.66
				c13.816,4.575,28.354,5.277,42.498,8.063c8.022,1.581,15.049,6.133,22.599,9.162c15.512,6.222,29.45,15.314,43.892,23.535
				c13.666,7.779,26.788,16.883,42.571,20.329c14.148,3.09,28.084,7.022,42.058,10.801c2.261,0.611,4.585,0.74,6.911,0.934
				c6.364,0.529,12.316,2.219,17.952,5.461c7.209,4.147,14.755,7.692,22.677,10.345c2.206,0.739,4.511,1.351,5.673,3.702
				C1198,288.333,1198,297.667,1198,307z"/>
			<path fill-rule="evenodd" clip-rule="evenodd" fill="#FFFFFF" d="M891.052,187.134c-31.613,11.944-64.996,20.692-94.26,36.884
				c-21.853,12.091-35.038-2.131-51.852-6.004c-33.977-7.827-66.229-3.014-96.957,12.655c-31.433,16.028-62.144,20.139-96.819,6.595
				c-18.381-7.18-41.165-5.241-61.756-4.004c-20.647,1.24-40.979,8.877-61.569,9.461c-10.627,0.302-21.312-9.171-32.328-13.27
				c-25.213-9.381-50.27-19.528-76.13-26.692c-15.278-4.233-32.101-5.18-47.967-4.02c-7.755,0.567-14.469,10.194-22.413,14.225
				c-40.872,20.74-82.273,40.452-122.891,61.668c-17.976,9.39-33.667,23.39-52.006,31.775c-15.969,7.302-34.179,9.747-51.45,14.134
				C16.852,322.015,10.89,322.865,5,324c0-44.833-0.044-89.667,0.189-134.499c0.008-1.508,2.81-4.314,4.311-4.315
				C304,184.993,598.5,185,893,185C893.66,186.907,891.355,186.107,891.052,187.134z"/>
			<path fill-rule="evenodd" clip-rule="evenodd" fill="#FFFFFF" d="M1198,279c-30.784-9.613-62.059-17.925-92.188-29.275
				c-21.822-8.221-41.653-21.605-63.233-30.626c-24.483-10.234-49.885-18.291-74.981-27.024c-6.347-2.208-13.051-3.393-19.591-5.047
				c-0.564-1.325-3.326,0.608-3.007-2.027c82.714,0,165.429-0.026,248.142,0.193c1.624,0.004,4.637,2.88,4.651,4.438
				C1198.073,219.418,1198,249.209,1198,279z"/>
			<path fill-rule="evenodd" clip-rule="evenodd" fill="#E2E2E2" d="M945,185c1.002,0.676,2.005,1.352,3.007,2.027
				c-18.985,0.036-37.97,0.071-56.955,0.106c0.649-0.711,1.299-1.422,1.948-2.134C910.333,185,927.667,185,945,185z"/>
			<path fill-rule="evenodd" clip-rule="evenodd" fill="#EEEEEE" d="M634.089,1017.167c-0.038,0.277-0.068,0.555-0.089,0.833
				c-7.667,0-15.333,0-23,0c-0.018-0.289-0.045-0.578-0.08-0.866C618.645,1016.135,626.367,1016.073,634.089,1017.167z"/>
			<path fill-rule="evenodd" clip-rule="evenodd" fill="#272424" d="M261.918,477.973c3.305,6.476,6.609,12.951,9.914,19.427
				c-3.869-5.227-7.83-10.392-11.476-15.77C259.954,481.036,261.354,479.221,261.918,477.973z"/>
			<path fill-rule="evenodd" clip-rule="evenodd" fill="#2C292A" d="M500.726,980.121c4.712-0.525,9.474-1.697,14.116-1.334
				c2.792,0.219,5.398,2.828,8.088,4.363C515.528,982.141,508.127,981.131,500.726,980.121z"/>
			<path fill-rule="evenodd" clip-rule="evenodd" fill="#312F2F" d="M415.991,962.004c3.669,1.302,7.338,2.604,11.007,3.906
				C423.329,964.607,419.66,963.306,415.991,962.004z"/>
			<path fill-rule="evenodd" clip-rule="evenodd" fill="#E6E5E5" d="M634.089,1017.168c-7.723-0.013-15.445-0.024-23.168-0.035
				c-0.604-0.477-1.209-0.955-1.812-1.433c8.942,0.045,17.885,0.09,26.827,0.135C635.32,1016.279,634.704,1016.724,634.089,1017.168
				z"/>
			<path fill-rule="evenodd" clip-rule="evenodd" fill="#FEFEFE" d="M434.051,954.882c-18.473-13.301-26.883-32.664-34.129-53.442
				c-8.601-24.663-0.859-47.034,4.124-70.77c3.075-14.646,8.375-25.082,19.278-34.073c1.267-1.045,0.951-6.262-0.481-7.696
				c-1.443-1.444-6.053-1.762-7.771-0.509c-4.888,3.561-8.891,8.311-13.493,12.304c-1.732,1.502-4.155,2.209-6.263,3.278
				c-1.409-2.795-2.733-5.638-4.244-8.378c-4.507-8.171-9.038-16.331-13.749-24.385c-0.319-0.546-2.577-0.686-3.312-0.154
				c-22.883,16.525-35.979-3.749-45.903-16.254c-17.255-21.743-32.868-46.086-42.896-71.787c-6.083-15.587-0.83-35.798,0.125-53.889
				c1.881-35.616,4.534-71.192,6.305-106.812c0.295-5.932-3.447-12.057-3.191-18c0.332-7.687,2.782-15.286,4.364-22.914
				c2.645-12.75,5.504-25.461,7.808-38.272c0.372-2.07-1.267-6.176-2.673-6.523c-2.502-0.618-7.545,0.243-8.021,1.662
				c-3.121,9.302-5.308,18.917-7.79,28.433c-0.62,2.375-1.207,4.758-1.809,7.138c-1.711-1.285-3.308-2.771-5.151-3.824
				c-15.694-8.958-31.34-18.007-47.178-26.705c-26.746-14.687-41.506-39.434-34.119-68.492c4.29-16.874-4.706-13.759-12.991-15.339
				c-14.906-2.842-18.933-24.83-7.477-40.963c14.611-20.575,69.089-41.72,93.116-35.363c13.625,3.605,25.395,9.519,22.6,27.681
				c-1.106,7.186,1.312,14.891,0.377,22.135c-0.505,3.922-4.688,7.371-7.212,11.033c-1.436-2.383-3.203-4.631-4.24-7.177
				c-2.316-5.684-3.805-11.753-6.599-17.167c-1.089-2.11-4.779-2.878-7.284-4.257c-1.253,3.637-4.197,7.667-3.458,10.839
				c2.734,11.729,6.685,23.175,10.178,34.728c1.252,2.746-0.031,5.491-0.005,8.237c-0.214,1.798-0.421,3.597-0.646,5.394
				c-0.5,4.012-1.009,8.022-1.514,12.034c5.87-1.632,13.898-1.441,17.147-5.287c6.182-7.317,10.1-16.732,14.097-25.662
				c4.85-10.834,17.826-14.583,24.122-4.914c2.166,3.326-5.11,12.528-7.551,19.236c-1.316,3.616-1.53,7.632-2.241,11.468
				c4.202-1.475,10.726-1.736,12.231-4.619c10.447-20.003,20.147-40.417,29.439-60.992c3.559-7.88,9.743-18.586,7.008-24.325
				c-3.763-7.896-14.224-13.57-22.954-17.905c-13.571-6.738-27.173-10.439-43.609-4.745c-12.302,4.262-27.08,1.972-40.731,1.622
				c-30.021-0.77-55.767,10.415-79.7,27.168c-13.849,9.695-27.175,20.272-41.722,28.763c-5.276,3.079-14.875-1.096-19.987,2.082
				c-16.545,10.286-31.287,23.545-48.091,33.306c-6.043,3.51-18.306,3.462-23.582-0.494c-8.389-6.291-13.304-17.218-19.562-26.271
				c-0.053-0.076,1.568-1.87,2.528-2.004c38.86-5.422,71.629-23.531,103.942-45.105c23.166-15.468,50.799-24.128,75.999-36.708
				c19.033-9.502,36.826-21.623,56.215-30.222c11.846-5.254,25.938-9.204,38.542-8.125c19.972,1.709,40.31,6.078,59.059,13.133
				c17.992,6.771,33.781,19.191,51.326,27.458c6.406,3.019,15.236,2.409,22.686,1.409c21.46-2.88,42.871-6.334,64.13-10.443
				c23.561-4.553,44.957,1.353,66.716,9.813c28.79,11.193,57.065,4.165,82.982-9.351c42.08-21.945,83.37-24.537,126.071-2.382
				c4.471,2.319,12.274-0.992,18.262-2.659c4.185-1.166,7.746-4.41,11.866-5.994c28.468-10.942,56.389-24.122,85.75-31.632
				c18.928-4.842,40.56-4.295,59.986-0.738c26.382,4.832,52.381,13.391,77.455,23.152c16.941,6.595,31.16,20.193,48.107,26.76
				c24.512,9.498,50.537,15.015,75.631,23.114c14.475,4.671,28.395,11.065,42.509,16.819c0.264,0.108,0.183,2.542-0.31,2.801
				c-6.529,3.423-13.137,9.375-19.772,9.435c-23.356,0.209-47.128,7.66-69.906-6.037c-25.923-15.586-52.578-30.159-79.832-43.267
				c-24.569-11.816-51.049-8.072-77.044-4.307c-14.047,2.035-28.296,3.203-42.061,6.436c-7.658,1.798-14.483,7.086-21.73,10.708
				c-17.444,8.718-4.892,20.768-4.089,31.861c0.576,7.979-1.927,16.152-2.718,24.272c-0.274,2.815-0.431,6.266,0.905,8.502
				c4.993,8.356,10.345,16.541,16.188,24.319c1.792,2.385,5.593,3.26,8.474,4.827c0.946-3.233,3.094-6.689,2.546-9.646
				c-0.756-4.087-3.552-7.794-5.455-11.672c-1.51-3.075-2.991-6.164-4.484-9.247c5.758-1.405,11.493-2.952,17.326-3.899
				c0.389-0.063,1.931,4.378,2.218,6.81c0.665,5.628-0.568,11.932,1.54,16.86c9.997,23.358,29.633,37.536,50.577,49.994
				c1.869,1.112,5.86-1.344,8.865-2.143c-1.136-2.911-1.463-6.741-3.546-8.575c-9.206-8.104-18.917-15.634-28.444-23.372
				c0.325-0.385,0.771-0.849,1.204-0.768c5.344,1.003,10.286,0,14.893-2.828c3.486,3.101,7.156,5.598,12.191,5.562
				c2.223-0.016,2.943,2.381,3.965,4.084c3.023,5.043,6.277,5.259,10.09,0.735c2-2.373,3.123-5.068,3.056-8.208
				c-0.096-4.438-2.479-6.894-6.906-6.497c-3.859,0.346-7.605,0.326-11.328-0.798c-3.268-0.987-6.065,1.515-9.241,1.304
				c-2.17-0.821-1.731-2.562-1.414-4.191c0.349-1.793,0.965-3.527,1.324-5.32c1.396-6.977-2.948-11.333-9.692-9.044
				c-8.977,3.046-13.928,8.622-11.103,17.973c0.509,1.686,1.364,3.491-0.015,5.224c-4.454-6.142-8.928-12.27-13.299-18.47
				c-0.192-0.272,0.468-1.691,0.87-1.76c20.298-3.478,6.8-18.204,6.651-26.038c-0.184-9.763-8.48-19.213-12.33-29.164
				c-1.138-2.941-0.409-8.541,1.708-10.511c26.629-24.786,57.258-18.922,85.79-6.661c20.513,8.815,38.251,24.137,57.043,36.829
				c1.726,1.166,2.639,4.223,3.033,6.554c1.926,11.375,6.344,11.285,13.106,3.289c0.832-0.984,3.437-1.818,4.189-1.28
				c2.947,2.104,5.481,4.787,8.169,7.254c-1.504,1.084-2.875,2.797-4.533,3.146c-7.934,1.673-16.405,1.818-23.797,4.747
				c-7.016,2.779-12.931,8.336-19.33,12.671c3.124,4.04,6.427,7.958,9.291,12.173c1.34,1.974,2.678,4.63,2.406,6.773
				c-0.176,1.38-3.929,1.991-4.939,3.643c-2.448,4.002-4.861,8.237-6.094,12.708c-1.146,4.154,0.142,9.029-1.203,13.066
				c-3.126,9.381-6.538,18.781-11.013,27.572c-9.402,18.47-26.557,24.266-45.432,22.905c-15.626-1.127-31.673-3.952-46.188-9.527
				c-6.483-2.49-10.525-9.117-15.904-0.473c-1.675,2.691-1.503,7.804-0.11,10.871c2.945,6.487,9.815,12.043,10.605,18.527
				c8.619,70.717,34.817,139.293,27.326,211.84c-1.587,15.363-6.803,31.564-14.634,44.854
				c-28.873,48.992-59.546,96.925-89.542,145.255c-0.496,0.8-1.002,1.593-1.503,2.389c-0.279-1.168-0.501-2.354-0.848-3.502
				c-4.788-15.879-9.376-31.826-14.734-47.511c-0.531-1.557-5.888-2.216-8.786-1.795c-0.977,0.142-2.731,6.023-1.672,7.43
				c17.938,23.804,14.229,50.422,8.042,76.06c-5.974,24.758-20.452,43.951-43.538,57.906c-18.221,11.015-35.315,8.163-54.106,6.612
				c-34.574-2.851-63.995-16.952-89.271-39.233c-6.184-5.45-7.942-17.562-8.546-26.818c-0.213-3.262,9.506-6.716,13.954-10.869
				c4.243-3.962,7.716-8.811,11.2-13.513c10.542-14.227,22.512-27.733,30.697-43.226c4.081-7.724,1.777-19.212,1.113-28.912
				c-0.42-6.138-3.629-12.046-4.551-18.212c-0.3-2.007,2.681-4.504,4.16-6.776c1.561,1.132,2.981,2.604,4.714,3.317
				c2.829,1.164,5.862,1.832,8.81,2.711c1.343-5.537,4.463-11.321,3.731-16.568c-3.762-26.98-49.308-70.385-76.372-71.713
				c-15.504-0.762-31.174,2.299-46.791,3.27c-14.707,0.913-29.851-0.566-44.064,2.468c-17.843,3.81-51.786,46.505-50.79,64.247
				c0.471,8.398,9.375,16.062,13.039,24.664c1.553,3.646-0.292,8.889-1.053,13.327c-0.875,5.107-4.838,11.528-2.982,14.948
				c8.685,15.995,20.317,30.481,28.125,46.831c5.79,12.124,13.559,16.646,25.859,20.673c10.491,3.435,13.422,17.612,6.795,26.759
				c-12.043,16.624-24.225,35.55-41.071,45.599c-15.969,9.525-37.875,9.813-57.408,12.294c-7.671,0.975-15.988-3.131-24.01-4.923
				C444.604,958.449,438.952,957.461,434.051,954.882z"/>
			<path fill-rule="evenodd" clip-rule="evenodd" fill="#242021" d="M939.075,363.247c0.149-6.065-2.071-14.439,1.033-17.625
				c4.088-4.194,12.36-4.31,18.833-6.179c0.291,5.441,0.58,10.882,0.876,16.323c0.042,0.786,0.116,1.57,0.176,2.354
				c0.761,2.178-0.353,3.575-1.983,4.755c-5.319,1.048-10.639,2.096-15.958,3.144C941.06,365.095,940.067,364.171,939.075,363.247z"
				/>
			<path fill-rule="evenodd" clip-rule="evenodd" fill="#FDFDFD" d="M671.563,796.668c-5.203-2.725-9.866-5.168-14.53-7.61
				c4.565-5.288,9.076-10.626,13.803-15.766c0.362-0.394,2.815,0.236,3.327,1.022c4.311,6.615,8.405,13.313,18.045,8.096
				c0.261-0.141,1.989,1.355,1.878,1.805c-0.327,1.326-0.931,3.166-1.963,3.642C685.608,790.86,678.948,793.549,671.563,796.668z"/>
			<path fill-rule="evenodd" clip-rule="evenodd" fill="#FCFCFC" d="M547.412,794.972c-2.988-2.872-8.983-6.8-8.414-8.422
				c1.865-5.312,6.119-9.784,9.454-14.579c3.688,4.796,8.691,9.123,10.625,14.545c1.396,3.914-1.291,9.283-2.157,14.004
				C553.75,798.67,550.581,796.821,547.412,794.972z"/>
			<path fill-rule="evenodd" clip-rule="evenodd" fill="#323030" d="M434.051,954.882c5.002,2.364,10.005,4.728,15.008,7.091
				C444.056,959.609,439.053,957.246,434.051,954.882z"/>
			<path fill-rule="evenodd" clip-rule="evenodd" fill="#2E2B2C" d="M270.887,369.206c0.001-2.746,0.003-5.491,0.005-8.237
				C270.89,363.715,270.888,366.46,270.887,369.206z"/>
			<path fill-rule="evenodd" clip-rule="evenodd" fill="#010101" d="M934.359,600.213c1.481,16.688,6.23,31.195,2.842,43.454
				c-3.128,11.317-14.968,20.237-23.056,30.144c-0.373,0.457-1.578,0.289-2.399,0.321c-16.407,0.656-32.835,0.998-49.214,2.083
				c-7.354,0.486-17.326,5.965-21.268,2.916c-5.706-4.413-9.141-14.35-9.731-22.217c-1.032-13.746,0.741-27.717,1.534-41.582
				c0.382-6.678,1.344-13.324,1.726-20.004c0.079-1.37-1.254-2.821-1.937-4.235c-9.712,10.406-17.904-0.552-26.523-2.285
				c-13.596-2.733-27.11-6.372-40.143-11.062c-3.349-1.205-4.765-7.778-7.068-11.885c3.186,0,6.371,0.017,9.556-0.02
				c0.393-0.004,1.131-0.315,1.122-0.447c-0.215-3.42,0.294-7.153-0.912-10.203c-11.272-28.504,8.749-57.207,40.025-59.407
				c15.268-1.074,28.484,0.257,40.172,10.754c1.595,1.433,7.468,1.126,7.548,0.771c1.146-5.113,1.86-10.359,2.188-15.604
				c0.158-2.525-0.71-5.116-1.114-7.676c2.798,1.141,5.989,1.756,8.325,3.511c11.317,8.503,22.793,16.864,33.488,26.113
				c19.116,16.534,25.064,39.24,28.615,63.12C929.46,585.68,932.743,594.297,934.359,600.213z"/>
			<path fill-rule="evenodd" clip-rule="evenodd" fill="#010101" d="M414.761,503.995c33.132,0.002,51.277,19.085,54.061,45.597
				c1.059,10.084,2.441,20.135,3.546,30.215c0.119,1.081-0.635,2.258-0.984,3.39c-0.87-0.362-1.716-0.951-2.615-1.052
				c-8.021-0.892-16.947-4.367-23.913-2.031c-21.504,7.211-47.856,0.706-58.979-18.13c-5.474-9.269-8.267-17.253-22.136-19.463
				c-8.576-1.367-2.021-13.536,4.693-16.973C386.435,516.333,405.101,508.42,414.761,503.995z"/>
			<path fill-rule="evenodd" clip-rule="evenodd" fill="#030303" d="M606.038,302.508c0.543-6.272,0.508-12.679,1.922-18.748
				c0.537-2.306,4.405-3.836,6.756-5.72c1.954,2.822,5.344,5.511,5.618,8.488c1.268,13.754,1.133,27.648,2.675,41.361
				c0.531,4.717,4.95,8.876,6.673,13.625c1.001,2.76,0.176,6.183,0.173,9.308c-3.223-0.467-8.667,0.006-9.324-1.548
				c-6.358-15.02-11.913-30.38-17.697-45.644C603.901,303.256,604.97,302.882,606.038,302.508z"/>
			<path fill-rule="evenodd" clip-rule="evenodd" fill="#232020" d="M414.093,665.039c-7.825,16.357-18.613,17.482-29.371,2.552
				c-5.01-6.952-8.857-14.752-13.057-22.265c-0.357-0.639,0.807-2.943,0.928-2.916c5.127,1.109,10.442,1.844,15.252,3.807
				c5.594,2.283,10.74,5.66,16.08,8.562c0.733,0.875,0.422,1.861,0.263,2.809c-0.597,3.554,1.311,5.111,4.47,5.758
				C410.521,663.728,412.668,663.239,414.093,665.039z"/>
			<path fill-rule="evenodd" clip-rule="evenodd" fill="#242021" d="M183.506,340.573c7.539-3.441,13.854-8.287,20.37-8.572
				c4.004-0.176,8.314,6.622,12.487,10.289c-8.054,5.135-16.109,10.27-24.164,15.405
				C189.822,353.012,187.444,348.33,183.506,340.573z"/>
			<path fill-rule="evenodd" clip-rule="evenodd" fill="#040404" d="M427.045,659.87c3.479-1.06,6.958-2.118,10.438-3.178
				c0.488,3.528,2.087,7.351,1.246,10.526c-2.088,7.885-4.744,15.745-8.363,23.023c-1.148,2.31-6.056,2.75-9.243,4.046
				c-0.629-3.28-2.328-6.794-1.674-9.796c1.577-7.242,4.253-14.245,6.487-21.346C425.275,661.706,425.799,660.666,427.045,659.87z"
				/>
			<path fill-rule="evenodd" clip-rule="evenodd" fill="#040404" d="M958.01,362.876c0.661-1.585,1.322-3.17,1.983-4.755
				c8.292-0.413,16.61-1.294,24.854-0.838c1.623,0.089,4.857,6.133,4.053,8.043c-1.954,4.645-5.847,8.474-8.958,12.632
				c-2.53-2-4.947-4.168-7.615-5.964C967.635,368.834,962.79,365.903,958.01,362.876z"/>
			<path fill-rule="evenodd" clip-rule="evenodd" fill="#060606" d="M536.278,623.617c2.355,26.219-14.371,38.852-27.14,53.61
				c-0.7,0.808-4.052,0.443-5.103-0.528c-0.837-0.776-0.78-4.074,0.132-4.95c13.798-13.259,27.006-26.704,26.177-47.995
				c-0.042-1.088,2.287-2.27,3.512-3.408C535.338,622.346,536.818,624.347,536.278,623.617z"/>
			<path fill-rule="evenodd" clip-rule="evenodd" fill="#070707" d="M627.086,499.198c-0.938,8.261-2.213,20.472-3.854,32.634
				c-0.189,1.407-2.406,2.541-3.683,3.801c-1.062-1.474-3.124-3.014-3.031-4.412c0.994-15.035,2.249-30.055,3.709-45.052
				c0.125-1.275,2.238-2.356,3.429-3.527c1.143,1.206,3.035,2.281,3.274,3.646C627.438,489.186,627.086,492.235,627.086,499.198z"/>
			<path fill-rule="evenodd" clip-rule="evenodd" fill="#070808" d="M257.815,431.667c-3.646-5.2-7.148-8.812-6.592-9.615
				c5.009-7.229,10.729-13.966,16.24-20.848c2.143,2.1,6.471,5.446,6.093,6.109C269.218,414.922,264.164,422.124,257.815,431.667z"
				/>
			<path fill-rule="evenodd" clip-rule="evenodd" fill="#080909" d="M748.017,600.677c1.474,1.058,2.86,1.895,4.064,2.941
				c8.88,7.718,17.812,15.384,26.489,23.325c1.346,1.232,1.479,3.787,2.174,5.73c-2.038-0.078-4.758,0.668-6.005-0.365
				c-9.567-7.92-18.908-16.119-28.135-24.438c-1.07-0.965-1.315-3.184-1.328-4.826C745.271,602.347,746.85,601.636,748.017,600.677z
				"/>
			<path fill-rule="evenodd" clip-rule="evenodd" fill="#090909" d="M427.045,659.87c-0.37,1.093-0.74,2.185-1.11,3.276
				c-3.947,0.631-7.895,1.262-11.842,1.893c-6.183-0.651-15.414,1.718-10.167-10.26C411.268,649.033,423.916,651.817,427.045,659.87
				z"/>
			<path fill-rule="evenodd" clip-rule="evenodd" fill="#0A0A0A" d="M664.118,470.461c0.734-0.831,1.746-2.888,2.737-2.879
				c1.447,0.014,3.863,1.257,4.165,2.419c2.663,10.237,5.023,20.555,7.212,30.905c0.185,0.873-1.535,2.147-2.37,3.235
				c-1.801-1.414-4.751-2.527-5.211-4.291C668.186,490.397,666.341,480.782,664.118,470.461z"/>
			<path fill-rule="evenodd" clip-rule="evenodd" fill="#0B0B0B" d="M473.493,595.684c-1.175,8.268-1.88,15.143-3.345,21.853
				c-0.283,1.296-3.543,1.94-5.43,2.886c-0.44-2.092-1.359-4.215-1.229-6.271c0.378-5.987,0.934-11.989,1.965-17.89
				c0.292-1.677,2.451-3.027,3.754-4.527C470.838,593.238,472.47,594.74,473.493,595.684z"/>
			<path fill-rule="evenodd" clip-rule="evenodd" fill="#0B0B0B" d="M727.252,728.9c-1.462,1.906-2.185,3.752-3.163,3.9
				c-1.295,0.196-3.46-0.53-4.09-1.566c-3.862-6.352-7.509-12.844-10.934-19.441c-0.585-1.126-0.285-3.562,0.566-4.338
				c0.817-0.744,3.789-0.719,4.261-0.005C718.503,714.43,722.787,721.625,727.252,728.9z"/>
			<path fill-rule="evenodd" clip-rule="evenodd" fill="#0B0B0B" d="M458.395,471.287c5.815,5.457,11.371,10.566,16.716,15.887
				c0.42,0.418-0.349,3.099-1.054,3.347c-1.303,0.46-3.433,0.466-4.405-0.331c-5.808-4.762-11.384-9.806-17.039-14.756
				C454.098,474.37,455.583,473.305,458.395,471.287z"/>
			<path fill-rule="evenodd" clip-rule="evenodd" fill="#272424" d="M1028.246,316.811c4.505,3.168,8.29,5.557,11.546,8.526
				c0.339,0.309-3.319,6.073-3.685,5.918c-5.177-2.196-10.104-4.978-15.093-7.619
				C1023.109,321.659,1025.204,319.682,1028.246,316.811z"/>
			<path fill-rule="evenodd" clip-rule="evenodd" fill="#111111" d="M470.356,506.127c-2.379,3.181-3.939,5.268-5.5,7.354
				c-1.726-5.087-3.682-10.118-4.984-15.312c-0.26-1.037,1.977-2.699,3.063-4.073C465.266,497.876,467.598,501.656,470.356,506.127z
				"/>
			<path fill-rule="evenodd" clip-rule="evenodd" fill="#151616" d="M470.792,859.186c-2.231-2.524-3.586-4.057-4.941-5.589
				c2.212-1.866,4.271-4.023,6.773-5.339c0.47-0.247,4.176,3.412,3.839,4.323C475.647,854.783,473.324,856.427,470.792,859.186z"/>
			<path fill-rule="evenodd" clip-rule="evenodd" fill="#222222" d="M436.766,906.089c-2.886,2.303-5.343,4.919-5.877,4.572
				c-2.112-1.37-3.621-3.669-5.353-5.624c1.64-1.291,3.324-3.652,4.909-3.588C432.195,901.52,433.854,903.815,436.766,906.089z"/>
			<path fill-rule="evenodd" clip-rule="evenodd" fill="#1C1D1D" d="M810.786,908.152c-2.316,2.498-3.804,4.103-5.291,5.707
				c-1.234-1.985-3.356-3.935-3.441-5.969c-0.076-1.835,2.076-3.764,3.246-5.651C806.866,903.928,808.432,905.615,810.786,908.152z"
				/>
			<path fill-rule="evenodd" clip-rule="evenodd" fill="#1A1B1B" d="M766.917,861.271c2.075,3.207,4.256,5.082,4.07,6.682
				c-0.218,1.873-2.496,3.507-3.881,5.244c-1.634-1.383-4.677-2.864-4.588-4.124C762.674,866.881,764.764,864.826,766.917,861.271z"
				/>
			<path fill-rule="evenodd" clip-rule="evenodd" fill="#222323" d="M464.869,916.981c-5.184,4.112-6.824,6.145-8.867,6.702
				c-0.913,0.249-4.015-3.235-3.754-3.702c1.243-2.225,2.992-4.653,5.183-5.676C458.733,913.697,461.188,915.556,464.869,916.981z"
				/>
			<path fill-rule="evenodd" clip-rule="evenodd" fill="#191A1A" d="M796.806,855.879c-2.314,1.968-3.678,3.127-5.041,4.286
				c-1.558-1.864-3.873-3.551-4.372-5.666c-0.271-1.149,2.545-3.027,3.968-4.577C792.901,851.608,794.443,853.294,796.806,855.879z"
				/>
			<path fill-rule="evenodd" clip-rule="evenodd" fill="#1B1C1C" d="M448.633,837.971c-2.908,2.4-4.659,4.293-6.822,5.313
				c-0.534,0.252-2.406-2.334-3.663-3.615c1.758-1.678,3.329-3.688,5.381-4.842C444.185,834.458,446.117,836.36,448.633,837.971z"/>
			<path fill-rule="evenodd" clip-rule="evenodd" fill="#1A1A1A" d="M440.915,873.884c-2.813,1.549-4.767,3.402-5.724,2.982
				c-1.782-0.78-2.984-2.885-4.427-4.438c1.313-1.181,2.937-3.54,3.875-3.294C436.515,869.629,438.014,871.55,440.915,873.884z"/>
			<path fill-rule="evenodd" clip-rule="evenodd" fill="#1C1D1D" d="M503.745,852.67c-2.406,1.626-4.31,3.575-4.953,3.223
				c-1.905-1.044-3.312-2.995-4.914-4.592c1.342-1.152,2.994-3.467,3.958-3.209C499.697,848.59,501.168,850.541,503.745,852.67z"/>
			<path fill-rule="evenodd" clip-rule="evenodd" fill="#1E1F1F" d="M733.935,856.201c-2.66,2.188-4.181,4.413-5.65,4.38
				c-1.531-0.035-3.013-2.248-4.516-3.509c1.554-1.464,2.903-3.477,4.747-4.166C729.477,852.547,731.31,854.522,733.935,856.201z"/>
			<path fill-rule="evenodd" clip-rule="evenodd" fill="#191919" d="M482.926,892.433c-2.535,1.879-4.339,3.893-4.99,3.571
				c-1.94-0.958-3.594-2.709-4.909-4.483c-0.196-0.265,2.389-3.533,3.078-3.332C478.151,888.788,479.894,890.426,482.926,892.433z"
				/>
			<path fill-rule="evenodd" clip-rule="evenodd" fill="#1A1B1B" d="M487.161,926.477c-2.033-2.484-3.963-3.968-4.48-5.842
				c-0.257-0.934,2.072-2.581,3.232-3.905c1.63,1.599,3.597,3.005,4.689,4.912C490.934,922.22,488.85,924.182,487.161,926.477z"/>
			<path fill-rule="evenodd" clip-rule="evenodd" fill="#171818" d="M518.823,905.003c2.023,3.353,3.571,5.167,4.114,7.245
				c0.179,0.686-2.861,3.175-3.354,2.901c-1.8-0.998-3.704-2.593-4.43-4.416C514.787,909.814,516.866,907.921,518.823,905.003z"/>
			<path fill-rule="evenodd" clip-rule="evenodd" fill="#1B1B1B" d="M703.455,920.744c-2.093-2.529-4.041-3.99-4.528-5.837
				c-0.257-0.977,2.029-2.624,3.167-3.968c1.626,1.591,3.592,2.987,4.681,4.887C707.118,916.426,705.114,918.371,703.455,920.744z"
				/>
			<path fill-rule="evenodd" clip-rule="evenodd" fill="#181919" d="M453.564,878.95c1.919,3.119,3.799,4.824,3.665,6.352
				c-0.125,1.417-2.399,2.646-3.728,3.958c-1.206-1.319-3.305-2.589-3.381-3.971C450.033,883.726,451.761,882.062,453.564,878.95z"
				/>
			<path fill-rule="evenodd" clip-rule="evenodd" fill="#262727" d="M743.384,931.713c-2.989,1.711-4.578,3.366-5.97,3.215
				c-1.501-0.164-2.817-2.02-4.214-3.138c1.431-1.259,2.726-3.243,4.335-3.544C738.794,928.012,740.442,929.866,743.384,931.713z"/>
			<path fill-rule="evenodd" clip-rule="evenodd" fill="#323333" d="M780.213,923.44c1.568,1.704,3.47,2.905,3.349,3.847
				c-0.175,1.357-1.816,2.526-2.833,3.775c-1.186-1.1-2.979-2.031-3.348-3.359C777.13,926.801,778.873,925.344,780.213,923.44z"/>
			<path fill-rule="evenodd" clip-rule="evenodd" fill="#2C2D2D" d="M515.166,881.855c-1.953,1.462-3.368,3.258-4.282,3.031
				c-1.327-0.329-2.292-2.118-3.412-3.284c1.13-0.982,2.222-2.681,3.4-2.743C512.011,878.8,513.24,880.424,515.166,881.855z"/>
			<path fill-rule="evenodd" clip-rule="evenodd" fill="#363636" d="M739.279,898.841c-2.104,1.659-3.404,3.434-4.377,3.269
				c-1.34-0.227-2.433-1.917-3.631-2.98c1.01-1.095,1.977-3.017,3.042-3.073C735.621,895.986,737.012,897.476,739.279,898.841z"/>
			<path fill-rule="evenodd" clip-rule="evenodd" fill="#2A2B2B" d="M773.422,902.726c-1.885,1.538-3.213,3.366-4.104,3.173
				c-1.323-0.287-2.336-2.004-3.48-3.111c1.063-1.019,2.056-2.735,3.214-2.855C770.154,899.817,771.431,901.367,773.422,902.726z"/>
			<path fill-rule="evenodd" clip-rule="evenodd" fill="#2A2A2A" d="M809.567,877.489c1.271,2.022,2.773,3.358,2.619,4.464
				c-0.161,1.158-1.913,2.094-2.97,3.127c-1.085-1.193-2.781-2.272-3.037-3.624C806.013,880.576,807.939,879.299,809.567,877.489z"
				/>
			<path fill-rule="evenodd" clip-rule="evenodd" fill="#2A2A2A" d="M710.287,881.713c-1.896,1.518-3.238,3.339-4.147,3.144
				c-1.312-0.282-2.31-2.027-3.44-3.148c1.071-1.01,2.081-2.729,3.231-2.828C707.051,878.783,708.314,880.344,710.287,881.713z"/>
			<path fill-rule="evenodd" clip-rule="evenodd" fill="#5188C6" d="M833.595,534.777c0.415-2.789,0.829-5.578,1.244-8.367
				c1.686,3.7,4.578,7.315,4.842,11.113c1.012,14.585-3.793,26.946-17.726,33.424c-13.74,6.388-32.596,1.418-41.242-9.893
				c-0.778-1.018-0.953-2.498-1.407-3.763c1.386,0.336,2.822,0.535,4.148,1.03c14.651,5.473,30.012,13.103,43.436-0.695
				c5.145-5.288,6.183-14.57,9.092-22.033C835.187,535.323,834.391,535.05,833.595,534.777z"/>
			<path fill-rule="evenodd" clip-rule="evenodd" fill="#F9F8F8" d="M806.821,520.348c3.479,2.876,7.249,5.994,11.021,9.112
				c-1.691,1.802-4.213,5.446-4.941,5.117c-6.133-2.768-11.938-6.263-17.841-9.539C798.26,523.762,801.46,522.486,806.821,520.348z"
				/>
			<path fill-rule="evenodd" clip-rule="evenodd" fill="#5188C6" d="M428.525,575.84c-16.668-3.63-35.313-10.43-45.758-30.347
				c-1.368-2.609-1.147-6.051-1.662-9.107c2.849,1.842,7.295,3.061,8.297,5.625c8.743,22.375,27.937,25.365,48.107,26.961
				c2.492,0.197,4.942,0.913,7.412,1.388c-2.854,1.826-5.623,3.813-8.608,5.391C435.272,576.301,433.698,575.84,428.525,575.84z"/>
			<path fill-rule="evenodd" clip-rule="evenodd" fill="#F6F5F4" d="M442.521,537.124c-3.522-2.147-5.99-3.652-8.458-5.156
				c2.746-2.658,5.491-5.315,8.237-7.973c1.966,2.175,5.066,4.147,5.505,6.596C448.104,532.264,444.689,534.602,442.521,537.124z"/>
		</g>
	</g>
</g>
</svg>
