<?xml version="1.0" standalone="no"?>
<!DOCTYPE svg PUBLIC "-//W3C//DTD SVG 20010904//EN"
 "http://www.w3.org/TR/2001/REC-SVG-20010904/DTD/svg10.dtd">
<svg version="1.0" xmlns="http://www.w3.org/2000/svg"
 width="500.000000pt" height="500.000000pt" viewBox="0 0 500.000000 500.000000"
 preserveAspectRatio="xMidYMid meet">
<metadata>
Created by potrace 1.11, written by Peter Selinger 2001-2013
</metadata>
<g transform="translate(0.000000,500.000000) scale(0.100000,-0.100000)"
fill="#000000" stroke="none">
<path d="M2255 4994 c-16 -2 -77 -9 -135 -15 -330 -36 -794 -231 -1100 -463
-262 -199 -457 -411 -642 -701 -43 -67 -144 -260 -169 -322 -13 -32 -27 -63
-31 -69 -32 -44 -136 -413 -160 -564 -17 -113 -17 -554 0 -675 67 -465 263
-928 527 -1244 239 -287 551 -530 904 -706 356 -178 561 -218 1111 -219 356
-1 390 2 599 60 665 182 1229 633 1565 1251 36 67 66 124 66 127 0 2 13 33 29
68 74 158 126 339 158 541 23 142 26 720 5 857 -13 87 -79 347 -92 365 -4 6
-17 42 -30 80 -57 179 -214 456 -370 657 -79 102 -356 381 -465 467 -192 154
-452 298 -650 361 -22 7 -52 19 -67 26 -30 16 -230 67 -323 83 -171 30 -592
50 -730 35z m463 -154 c321 -34 593 -115 872 -259 450 -232 789 -572 1030
-1035 68 -130 113 -243 105 -264 -2 -7 -1 -11 4 -7 12 6 35 -61 26 -75 -3 -5
-2 -10 4 -10 5 0 12 -19 16 -42 3 -24 15 -74 25 -113 50 -188 55 -237 55 -535
0 -317 -8 -385 -70 -610 -89 -319 -238 -614 -438 -862 -77 -96 -289 -308 -307
-308 -6 0 -13 -7 -17 -16 -8 -22 -94 -85 -106 -77 -6 3 -7 1 -3 -5 9 -14 -39
-46 -55 -36 -7 4 -9 3 -6 -3 4 -6 -16 -27 -46 -46 -78 -52 -299 -177 -312
-177 -7 0 -15 21 -19 46 -9 71 -7 602 3 608 5 3 21 -22 35 -56 20 -45 30 -58
38 -50 20 20 -19 317 -71 542 -10 47 -17 87 -15 90 3 2 30 -24 60 -58 31 -34
60 -62 65 -62 30 0 -73 200 -220 425 -46 72 -98 159 -114 194 -28 62 -28 65
-11 78 16 12 17 17 6 43 -7 17 -17 43 -24 60 -7 16 -10 32 -7 34 3 3 38 0 77
-8 40 -8 72 -11 72 -8 0 4 -25 29 -56 58 -61 56 -63 74 -8 74 19 0 34 3 33 8
0 4 -28 30 -62 58 -70 57 -90 102 -40 90 76 -19 90 -2 49 61 -34 54 -67 166
-69 244 -2 83 18 123 142 288 50 65 107 154 127 195 46 97 44 151 -7 252 -38
76 -54 88 -64 47 -10 -44 -39 -72 -81 -79 -33 -5 -45 -1 -81 25 -23 16 -44 39
-48 50 -9 28 -25 26 -25 -3 0 -44 -21 -83 -61 -116 -39 -31 -206 -106 -216
-96 -7 6 49 87 122 176 94 115 165 215 216 304 72 125 103 112 111 -49 4 -70
18 -74 34 -11 35 135 23 342 -24 435 -15 30 -37 61 -48 68 -21 14 -22 13 -17
-31 7 -57 -9 -80 -49 -72 -68 14 -135 85 -124 132 26 102 -210 -137 -435 -440
-15 -20 -50 -81 -79 -135 -62 -119 -129 -194 -189 -212 -23 -7 -44 -10 -47 -7
-12 12 39 75 108 133 72 60 97 98 85 129 -10 26 -66 19 -143 -18 -164 -79
-313 -211 -444 -396 -109 -154 -210 -315 -263 -420 -10 -19 -61 -84 -113 -145
-231 -266 -361 -443 -419 -569 -46 -100 -51 -130 -26 -155 27 -27 60 -26 167
0 46 12 87 19 91 16 12 -13 -21 -37 -58 -43 -62 -10 -82 -59 -21 -52 19 2 28
-2 30 -14 3 -17 -83 -74 -152 -99 -46 -17 -46 -35 1 -44 21 -4 46 -11 56 -17
25 -13 12 -27 -80 -89 -73 -50 -92 -74 -50 -64 85 19 108 22 113 14 9 -15 -91
-112 -165 -159 -65 -42 -95 -78 -53 -66 40 12 91 18 101 11 23 -13 -31 -85
-154 -203 -69 -67 -138 -130 -153 -140 -15 -9 -34 -25 -42 -34 -26 -28 -111
-98 -120 -98 -12 0 -143 178 -202 274 -144 238 -239 510 -289 831 -16 108 -23
582 -10 705 20 185 107 453 225 695 301 614 835 1057 1491 1234 271 73 570 98
833 71z"/>
<path d="M2603 4713 c15 -2 39 -2 55 0 15 2 2 4 -28 4 -30 0 -43 -2 -27 -4z"/>
<path d="M4160 4095 c13 -14 26 -25 28 -25 3 0 -5 11 -18 25 -13 14 -26 25
-28 25 -3 0 5 -11 18 -25z"/>
<path d="M4250 4005 c19 -19 36 -35 39 -35 3 0 -10 16 -29 35 -19 19 -36 35
-39 35 -3 0 10 -16 29 -35z"/>
<path d="M929 3943 c-13 -16 -12 -17 4 -4 9 7 17 15 17 17 0 8 -8 3 -21 -13z"/>
<path d="M382 2620 c0 -14 2 -19 5 -12 2 6 2 18 0 25 -3 6 -5 1 -5 -13z"/>
<path d="M381 2314 c0 -11 3 -14 6 -6 3 7 2 16 -1 19 -3 4 -6 -2 -5 -13z"/>
</g>
</svg>
